<svg xmlns="http://www.w3.org/2000/svg" viewBox="0 0 24 24" fill="currentColor" aria-hidden="true"><g transform="translate(0.00,0.00) scale(1.0000)"><g transform="translate(0.000000,24.000000) scale(0.002694,-0.003478)"><path d="M3900 6810 c-540 -22 -911 -73 -1450 -201 -93 -23 -387 -112 -435
-133 -16 -8 -55 -22 -85 -31 -127 -41 -480 -212 -635 -308 -52 -33 -245 -169
-280 -198 -11 -9 -42 -36 -70 -59 -488 -409 -718 -885 -665 -1370 6 -58 14
-108 18 -112 32 -32 7215 -73 7617 -43 33 2 134 7 225 10 206 6 369 15 439 24
l54 6 10 17 11 17 -12 173 -11 173 -25 105 c-112 486 -483 932 -1061 1275
-334 198 -845 395 -1280 493 -27 6 -79 18 -115 26 -36 8 -108 22 -160 31 -52
8 -117 20 -145 25 -406 75 -1223 109 -1945 80z"/>
<path d="M6550 3910 c-3631 -36 -5694 -43 -6030 -23 l-165 10 -36 -23 c-19
-13 -70 -58 -112 -99 l-76 -76 -23 -57 -23 -57 1 -335 1 -335 12 -80 c7 -44
23 -100 36 -125 51 -102 204 -213 334 -245 l66 -16 2025 3 2025 3 160 63 c88
34 186 67 218 72 l59 9 83 -19 c45 -10 124 -32 176 -48 166 -52 312 -92 372
-102 l58 -10 76 11 c42 6 133 29 202 51 69 22 167 53 216 69 50 16 119 32 155
35 l65 6 80 -27 c44 -14 94 -33 110 -40 67 -30 265 -104 320 -120 l59 -18 60
6 c58 6 161 30 416 99 l115 31 80 0 80 1 70 -28 c39 -16 97 -41 130 -56 96
-43 182 -70 225 -70 l40 0 107 56 c60 31 161 84 226 117 l118 60 38 44 c102
115 132 248 126 553 l-3 175 -21 95 c-26 121 -33 146 -61 199 -48 96 -176 185
-325 228 l-60 17 -535 2 c-294 0 -866 -2 -1270 -6z"/>
<path d="M2221 2003 l-1974 -3 7 -188 c8 -211 20 -345 42 -477 96 -570 461
-929 1068 -1050 158 -31 516 -67 1011 -100 44 -3 130 -10 190 -15 291 -25
1159 -63 1838 -81 475 -13 1447 -7 1792 10 250 13 795 57 870 71 28 5 91 14
140 20 386 49 643 107 812 185 321 148 588 529 683 970 26 120 50 365 50 504
l0 111 -26 10 c-45 17 -52 12 -110 -97 -32 -60 -75 -136 -96 -171 -21 -34 -38
-67 -38 -72 0 -45 -66 47 -220 308 l-43 72 -2011 -2 c-1106 -2 -2899 -4 -3985
-5z"/></g></g></svg>