<svg xmlns="http://www.w3.org/2000/svg" viewBox="0 0 24 24" fill="currentColor" aria-hidden="true"><g transform="translate(0.00,0.00) scale(1.0000)"><g transform="translate(0.000000,24.000000) scale(0.003361,-0.003448)"><path d="M3390 6873 c-366 -59 -692 -283 -925 -635 -21 -32 -41 -58 -45 -58
-3 0 -45 13 -93 29 -47 16 -121 38 -164 48 l-78 18 -145 -1 -145 0 -88 -22
c-385 -96 -641 -402 -738 -887 -12 -60 -23 -111 -24 -113 -1 -1 -58 -18 -125
-38 -356 -101 -583 -310 -683 -629 -38 -120 -48 -194 -49 -336 l0 -129 22
-129 23 -129 31 -6 c98 -17 3311 -49 5081 -50 l1330 -1 204 17 c112 9 207 20
211 25 5 4 18 55 30 113 l23 105 0 145 1 145 -17 88 c-48 239 -136 397 -319
573 -135 129 -266 210 -469 288 l-95 37 -23 102 c-97 431 -393 750 -787 849
l-89 22 -150 0 -150 1 -77 -22 c-42 -13 -102 -34 -134 -48 -32 -14 -61 -22
-64 -18 -4 5 -30 42 -58 83 -218 319 -496 505 -832 556 -86 13 -328 17 -390 7z"/>
<path d="M870 3449 c-234 -4 -503 -11 -599 -15 l-174 -6 6 -177 c21 -586 130
-1058 348 -1500 276 -558 673 -951 1256 -1244 488 -246 1261 -407 2033 -424
416 -9 708 23 1075 117 459 117 811 290 1160 571 506 406 912 1090 1029 1734
45 243 64 602 43 777 l-8 66 -22 6 c-12 4 -306 9 -654 13 l-632 6 -39 -85
c-114 -247 -302 -490 -497 -643 -309 -242 -652 -361 -1170 -406 l-140 -12
-185 7 c-960 35 -1628 274 -2065 739 -101 107 -163 197 -245 358 -49 96 -81
139 -93 127 -1 0 -193 -5 -427 -9z m4979 -859 c-72 -434 -347 -908 -696 -1199
-349 -293 -710 -454 -1151 -515 l-113 -16 -185 0 c-212 0 -328 11 -503 46
-594 121 -1214 508 -1559 974 -201 270 -304 497 -347 764 l-6 38 62 -43 c35
-24 113 -91 173 -150 549 -523 1155 -752 2051 -775 l240 -6 165 16 c596 57
1065 231 1436 532 110 89 196 178 333 347 57 70 108 124 112 120 5 -5 -1 -65
-12 -133z"/></g></g></svg>